<?xml version="1.0"?>
<svg xmlns="http://www.w3.org/2000/svg" xmlns:xlink="http://www.w3.org/1999/xlink" version="1.1" id="Capa_1" x="0px" y="0px" viewBox="0 0 480 480" style="enable-background:new 0 0 480 480;" xml:space="preserve" width="512px" height="512px"><g><g>
	<g>
		<path d="M472,140.001H320v-64c0-4.418-3.582-8-8-8H8c-4.418,0-8,3.582-8,8v208c0,4.418,3.582,8,8,8h40v40    c0.001,4.418,3.583,7.999,8.002,7.998c2.121,0,4.154-0.843,5.654-2.342l45.656-45.656H160v64c0,4.418,3.582,8,8,8h204.688    l45.656,45.656c3.125,3.124,8.19,3.123,11.314-0.002c1.499-1.5,2.342-3.534,2.342-5.654v-40h40c4.418,0,8-3.582,8-8v-208    C480,143.583,476.418,140.001,472,140.001z M104,276.001c-2.122,0-4.156,0.844-5.656,2.344L64,312.689v-28.688    c0-4.418-3.582-8-8-8H16v-192h288v192H104z M464,348.001h-40c-4.418,0-8,3.582-8,8v28.688l-34.344-34.344    c-1.5-1.5-3.534-2.344-5.656-2.344H176v-56h136c4.418,0,8-3.582,8-8v-128h144V348.001z" data-original="#000000" class="active-path" data-old_color="#000000" fill="#00AF80"/>
	</g>
</g><g>
	<g>
		<path d="M112,108.001H48c-4.418,0-8,3.582-8,8v64c0,4.418,3.582,8,8,8h64c4.418,0,8-3.582,8-8v-64    C120,111.583,116.418,108.001,112,108.001z M104,172.001H56v-48h48V172.001z" data-original="#000000" class="active-path" data-old_color="#000000" fill="#00AF80"/>
	</g>
</g><g>
	<g>
		<rect x="144" y="108.001" width="16" height="16" data-original="#000000" class="active-path" data-old_color="#000000" fill="#00AF80"/>
	</g>
</g><g>
	<g>
		<rect x="144" y="140.001" width="136" height="16" data-original="#000000" class="active-path" data-old_color="#000000" fill="#00AF80"/>
	</g>
</g><g>
	<g>
		<rect x="176" y="108.001" width="104" height="16" data-original="#000000" class="active-path" data-old_color="#000000" fill="#00AF80"/>
	</g>
</g><g>
	<g>
		<rect x="144" y="172.001" width="136" height="16" data-original="#000000" class="active-path" data-old_color="#000000" fill="#00AF80"/>
	</g>
</g><g>
	<g>
		<rect x="40" y="204.001" width="240" height="16" data-original="#000000" class="active-path" data-old_color="#000000" fill="#00AF80"/>
	</g>
</g><g>
	<g>
		<rect x="344" y="180.001" width="96" height="16" data-original="#000000" class="active-path" data-old_color="#000000" fill="#00AF80"/>
	</g>
</g><g>
	<g>
		<rect x="344" y="212.001" width="96" height="16" data-original="#000000" class="active-path" data-old_color="#000000" fill="#00AF80"/>
	</g>
</g><g>
	<g>
		<rect x="344" y="244.001" width="96" height="16" data-original="#000000" class="active-path" data-old_color="#000000" fill="#00AF80"/>
	</g>
</g><g>
	<g>
		<rect x="344" y="276.001" width="96" height="16" data-original="#000000" class="active-path" data-old_color="#000000" fill="#00AF80"/>
	</g>
</g><g>
	<g>
		<rect x="200" y="308.001" width="240" height="16" data-original="#000000" class="active-path" data-old_color="#000000" fill="#00AF80"/>
	</g>
</g><g>
	<g>
		<rect x="40" y="236.001" width="208" height="16" data-original="#000000" class="active-path" data-old_color="#000000" fill="#00AF80"/>
	</g>
</g></g> </svg>
