<?xml version="1.0"?>
<svg xmlns="http://www.w3.org/2000/svg" xmlns:xlink="http://www.w3.org/1999/xlink" version="1.1" id="Capa_1" x="0px" y="0px" viewBox="0 0 512 512" style="enable-background:new 0 0 512 512;" xml:space="preserve" width="512px" height="512px"><g><g>
	<g>
		<path d="M448,20H64c-4.418,0-8,3.582-8,8v248c0,4.418,3.582,8,8,8s8-3.582,8-8V36h368v136c0,4.418,3.582,8,8,8s8-3.582,8-8V28    C456,23.582,452.418,20,448,20z" data-original="#000000" class="active-path" data-old_color="#000000" fill="#00AF80"/>
	</g>
</g><g>
	<g>
		<rect x="240" y="60" width="184" height="16" data-original="#000000" class="active-path" data-old_color="#000000" fill="#00AF80"/>
	</g>
</g><g>
	<g>
		<rect x="208" y="92" width="216" height="16" data-original="#000000" class="active-path" data-old_color="#000000" fill="#00AF80"/>
	</g>
</g><g>
	<g>
		<rect x="208" y="124" width="216" height="16" data-original="#000000" class="active-path" data-old_color="#000000" fill="#00AF80"/>
	</g>
</g><g>
	<g>
		<rect x="208" y="156" width="216" height="16" data-original="#000000" class="active-path" data-old_color="#000000" fill="#00AF80"/>
	</g>
</g><g>
	<g>
		<rect x="208" y="60" width="16" height="16" data-original="#000000" class="active-path" data-old_color="#000000" fill="#00AF80"/>
	</g>
</g><g>
	<g>
		<rect x="320" y="460" width="16" height="16" data-original="#000000" class="active-path" data-old_color="#000000" fill="#00AF80"/>
	</g>
</g><g>
	<g>
		<rect x="352" y="460" width="16" height="16" data-original="#000000" class="active-path" data-old_color="#000000" fill="#00AF80"/>
	</g>
</g><g>
	<g>
		<rect x="384" y="460" width="16" height="16" data-original="#000000" class="active-path" data-old_color="#000000" fill="#00AF80"/>
	</g>
</g><g>
	<g>
		<rect x="416" y="460" width="16" height="16" data-original="#000000" class="active-path" data-old_color="#000000" fill="#00AF80"/>
	</g>
</g><g>
	<g>
		<rect x="448" y="460" width="16" height="16" data-original="#000000" class="active-path" data-old_color="#000000" fill="#00AF80"/>
	</g>
</g><g>
	<g>
		<rect x="480" y="460" width="16" height="16" data-original="#000000" class="active-path" data-old_color="#000000" fill="#00AF80"/>
	</g>
</g><g>
	<g>
		<rect x="320" y="428" width="16" height="16" data-original="#000000" class="active-path" data-old_color="#000000" fill="#00AF80"/>
	</g>
</g><g>
	<g>
		<rect x="352" y="428" width="16" height="16" data-original="#000000" class="active-path" data-old_color="#000000" fill="#00AF80"/>
	</g>
</g><g>
	<g>
		<rect x="384" y="428" width="16" height="16" data-original="#000000" class="active-path" data-old_color="#000000" fill="#00AF80"/>
	</g>
</g><g>
	<g>
		<rect x="256" y="412" width="16" height="16" data-original="#000000" class="active-path" data-old_color="#000000" fill="#00AF80"/>
	</g>
</g><g>
	<g>
		<rect x="224" y="412" width="16" height="16" data-original="#000000" class="active-path" data-old_color="#000000" fill="#00AF80"/>
	</g>
</g><g>
	<g>
		<rect x="192" y="412" width="16" height="16" data-original="#000000" class="active-path" data-old_color="#000000" fill="#00AF80"/>
	</g>
</g><g>
	<g>
		<path d="M296,300H8c-4.418,0-8,3.582-8,8v176c0,4.418,3.582,8,8,8h288c4.418,0,8-3.582,8-8V308C304,303.582,300.418,300,296,300z     M288,476H16v-80h272V476z M288,380H16v-32h272V380z M288,332H16v-16h272V332z" data-original="#000000" class="active-path" data-old_color="#000000" fill="#00AF80"/>
	</g>
</g><g>
	<g>
		<path d="M504,196H216c-4.418,0-8,3.582-8,8v72c0,4.418,3.582,8,8,8s8-3.582,8-8v-64h272v160H328c-4.418,0-8,3.582-8,8s3.582,8,8,8    h176c4.418,0,8-3.582,8-8V204C512,199.582,508.418,196,504,196z" data-original="#000000" class="active-path" data-old_color="#000000" fill="#00AF80"/>
	</g>
</g><g>
	<g>
		<path d="M384,284h-24v-16h24c4.418,0,8-3.582,8-8s-3.582-8-8-8h-8v-8c0-4.418-3.582-8-8-8s-8,3.582-8,8v8h-8c-4.418,0-8,3.582-8,8    v32c0,4.418,3.582,8,8,8h24v16h-24c-4.418,0-8,3.582-8,8s3.582,8,8,8h8v8c0,4.418,3.582,8,8,8s8-3.582,8-8v-8h8    c4.418,0,8-3.582,8-8v-32C392,287.582,388.418,284,384,284z" data-original="#000000" class="active-path" data-old_color="#000000" fill="#00AF80"/>
	</g>
</g><g>
	<g>
		<path d="M170.32,46.32l-14.64,14.72c-1.112-0.668-2.383-1.027-3.68-1.04H96c-4.418,0-8,3.582-8,8v56c0,4.418,3.582,8,8,8h56    c4.418,0,8-3.582,8-8V79.28l21.68-21.6L170.32,46.32z M144,116h-40V76h36.72L128,88.72l-10.32-10.4l-11.36,11.36l16,16    c3.111,3.137,8.177,3.158,11.314,0.046c0.016-0.015,0.031-0.031,0.046-0.046L144,95.28V116z" data-original="#000000" class="active-path" data-old_color="#000000" fill="#00AF80"/>
	</g>
</g><g>
	<g>
		<path d="M170.32,142.32l-14.64,14.72c-1.112-0.668-2.383-1.027-3.68-1.04H96c-4.418,0-8,3.582-8,8v56c0,4.418,3.582,8,8,8h56    c4.418,0,8-3.582,8-8v-44.72l21.68-21.6L170.32,142.32z M144,212h-40v-40h36.72L128,184.72l-10.32-10.4l-11.36,11.36l16,16    c3.111,3.137,8.177,3.158,11.314,0.046c0.016-0.015,0.031-0.031,0.046-0.046l10.32-10.4V212z" data-original="#000000" class="active-path" data-old_color="#000000" fill="#00AF80"/>
	</g>
</g></g> </svg>
