<?xml version="1.0"?>
<svg xmlns="http://www.w3.org/2000/svg" height="512px" viewBox="-63 0 479 480" width="512px" class=""><g><path d="m64.5 192v16c-17.671875 0-32 14.328125-32 32s14.328125 32 32 32v7.121094c-.003906 53.503906 43.367188 96.878906 96.871094 96.878906h30.257812c53.5-.007812 96.867188-43.378906 96.871094-96.878906v-7.121094c17.671875 0 32-14.328125 32-32s-14.328125-32-32-32v-16c0-61.855469-50.144531-112-112-112s-112 50.144531-112 112zm-16 48c0-8.835938 7.164062-16 16-16v32c-8.835938 0-16-7.164062-16-16zm256 0c0 8.835938-7.164062 16-16 16v-32c8.835938 0 16 7.164062 16 16zm-128-144c52.996094.058594 95.941406 43.003906 96 96v87.121094c-.003906 44.664062-36.207031 80.871094-80.871094 80.878906h-30.257812c-44.667969 0-80.875-36.210938-80.871094-80.878906v-87.121094c.058594-52.996094 43.003906-95.941406 96-96zm0 0" data-original="#000000" class="active-path" data-old_color="#000000" fill="#00AF80"/><path d="m168.5 280h8c8.835938 0 16-7.164062 16-16v-32h40c4.417969 0 8-3.582031 8-8s-3.582031-8-8-8h-40c-8.835938 0-16 7.164062-16 16v32h-8c-4.417969 0-8 3.582031-8 8s3.582031 8 8 8zm0 0" data-original="#000000" class="active-path" data-old_color="#000000" fill="#00AF80"/><path d="m120.5 232h32c4.417969 0 8-3.582031 8-8s-3.582031-8-8-8h-32c-4.417969 0-8 3.582031-8 8s3.582031 8 8 8zm0 0" data-original="#000000" class="active-path" data-old_color="#000000" fill="#00AF80"/><path d="m184.5 328h-16c-4.417969 0-8 3.582031-8 8s3.582031 8 8 8h16c4.417969 0 8-3.582031 8-8s-3.582031-8-8-8zm0 0" data-original="#000000" class="active-path" data-old_color="#000000" fill="#00AF80"/><path d="m144.5 248c0 4.417969-3.582031 8-8 8s-8-3.582031-8-8 3.582031-8 8-8 8 3.582031 8 8zm0 0" data-original="#000000" class="active-path" data-old_color="#000000" fill="#00AF80"/><path d="m224.5 248c0 4.417969-3.582031 8-8 8s-8-3.582031-8-8 3.582031-8 8-8 8 3.582031 8 8zm0 0" data-original="#000000" class="active-path" data-old_color="#000000" fill="#00AF80"/><path d="m56.5 480h240c17.671875 0 32-14.328125 32-32v-24h-16v24c0 8.835938-7.164062 16-16 16h-240c-8.835938 0-16-7.164062-16-16v-24h-16v24c0 17.671875 14.328125 32 32 32zm0 0" data-original="#000000" class="active-path" data-old_color="#000000" fill="#00AF80"/><path d="m40.5 32c0-8.835938 7.164062-16 16-16h240c8.835938 0 16 7.164062 16 16v24h16v-24c0-17.671875-14.328125-32-32-32h-240c-17.671875 0-32 14.328125-32 32v24h16zm0 0" data-original="#000000" class="active-path" data-old_color="#000000" fill="#00AF80"/><path d="m152.5 32h16v16h-16zm0 0" data-original="#000000" class="active-path" data-old_color="#000000" fill="#00AF80"/><path d="m184.5 32h16v16h-16zm0 0" data-original="#000000" class="active-path" data-old_color="#000000" fill="#00AF80"/><path d="m168.5 432h16v16h-16zm0 0" data-original="#000000" class="active-path" data-old_color="#000000" fill="#00AF80"/><path d="m.5 80v48h16v-40h40v-16h-48c-4.417969 0-8 3.582031-8 8zm0 0" data-original="#000000" class="active-path" data-old_color="#000000" fill="#00AF80"/><path d="m32.5 112v32h16v-24h24v-16h-32c-4.417969 0-8 3.582031-8 8zm0 0" data-original="#000000" class="active-path" data-old_color="#000000" fill="#00AF80"/><path d="m32.5 336v32c0 4.417969 3.582031 8 8 8h32v-16h-24v-24zm0 0" data-original="#000000" class="active-path" data-old_color="#000000" fill="#00AF80"/><path d="m312.5 104h-32v16h24v24h16v-32c0-4.417969-3.582031-8-8-8zm0 0" data-original="#000000" class="active-path" data-old_color="#000000" fill="#00AF80"/><path d="m320.5 368v-32h-16v24h-24v16h32c4.417969 0 8-3.582031 8-8zm0 0" data-original="#000000" class="active-path" data-old_color="#000000" fill="#00AF80"/><path d="m.5 400c0 4.417969 3.582031 8 8 8h48v-16h-40v-40h-16zm0 0" data-original="#000000" class="active-path" data-old_color="#000000" fill="#00AF80"/><path d="m296.5 72v16h40v40h16v-48c0-4.417969-3.582031-8-8-8zm0 0" data-original="#000000" class="active-path" data-old_color="#000000" fill="#00AF80"/><path d="m352.5 400v-48h-16v40h-40v16h48c4.417969 0 8-3.582031 8-8zm0 0" data-original="#000000" class="active-path" data-old_color="#000000" fill="#00AF80"/></g> </svg>
