<?xml version="1.0"?>
<svg xmlns="http://www.w3.org/2000/svg" id="Outline" height="512px" viewBox="0 0 512 512" width="512px" class=""><g><path d="m376 224h-16v-48h-16v56h-176v-88a56.068 56.068 0 0 1 32-50.586v82.586h16v-87.419a56.14 56.14 0 0 1 8-.581h8v56h16v-56h16v-16h-40a72.081 72.081 0 0 0 -72 72v48h-16v-32h-16v112a104.118 104.118 0 0 0 104 104h8v56h-32a40.045 40.045 0 0 0 -40 40v16a8 8 0 0 0 8 8h176a8 8 0 0 0 8-8v-16a40.045 40.045 0 0 0 -40-40h-32v-56h8a104.118 104.118 0 0 0 104-104v-72h-16zm-80 88v15.419a56.14 56.14 0 0 1 -8 .581h-8v-24h-16v24h-16v-32h-16v32h-8a56.14 56.14 0 0 1 -8-.581v-23.419h-16v18.586a56.145 56.145 0 0 1 -31.419-42.586h174.838a56.145 56.145 0 0 1 -31.419 42.586v-10.586zm48-64v16h-176v-16zm-192-40v16h-16v-16zm184 264v8h-160v-8a24.028 24.028 0 0 1 24-24h112a24.028 24.028 0 0 1 24 24zm-72-40h-16v-56h16zm24-72h-64a88.1 88.1 0 0 1 -88-88v-32h16v32a72.081 72.081 0 0 0 72 72h64a72.081 72.081 0 0 0 72-72v-32h16v32a88.1 88.1 0 0 1 -88 88z" data-original="#000000" class="active-path" data-old_color="#000000" fill="#00AF80"/><path d="m448 16h-136a32.036 32.036 0 0 0 -32 32v80a32.036 32.036 0 0 0 32 32h64v16a8 8 0 0 0 12.8 6.4l29.867-22.4h29.333a32.036 32.036 0 0 0 32-32v-80a32.036 32.036 0 0 0 -32-32zm16 112a16.019 16.019 0 0 1 -16 16h-32a8 8 0 0 0 -4.8 1.6l-19.2 14.4v-8a8 8 0 0 0 -8-8h-72a16.019 16.019 0 0 1 -16-16v-80a16.019 16.019 0 0 1 16-16h136a16.019 16.019 0 0 1 16 16z" data-original="#000000" class="active-path" data-old_color="#000000" fill="#00AF80"/><path d="m320 48h16v16h-16z" data-original="#000000" class="active-path" data-old_color="#000000" fill="#00AF80"/><path d="m352 48h88v16h-88z" data-original="#000000" class="active-path" data-old_color="#000000" fill="#00AF80"/><path d="m320 80h120v16h-120z" data-original="#000000" class="active-path" data-old_color="#000000" fill="#00AF80"/><path d="m320 112h96v16h-96z" data-original="#000000" class="active-path" data-old_color="#000000" fill="#00AF80"/><path d="m200 192h16v16h-16z" data-original="#000000" class="active-path" data-old_color="#000000" fill="#00AF80"/></g> </svg>
