<?xml version="1.0"?>
<svg xmlns="http://www.w3.org/2000/svg" xmlns:xlink="http://www.w3.org/1999/xlink" version="1.1" id="Capa_1" x="0px" y="0px" viewBox="0 0 480 480" style="enable-background:new 0 0 480 480;" xml:space="preserve" width="512px" height="512px"><g><g>
	<g>
		<path d="M248,375.36c27.517-3.993,47.947-27.555,48-55.36c-0.001-0.332-0.022-0.663-0.064-0.992l-8-64    c-0.5-4.003-3.902-7.007-7.936-7.008h-80c-4.034,0.001-7.436,3.005-7.936,7.008l-8,64c-0.041,0.329-0.063,0.66-0.064,0.992    c0.053,27.805,20.483,51.367,48,55.36V464h-40v16h96v-16h-40V375.36z M207.064,264h65.872l5,40h-75.872L207.064,264z M200,320.48    l0.056-0.48h79.888l0.056,0.48c0,22.091-17.909,40-40,40S200,342.571,200,320.48z" data-original="#000000" class="active-path" data-old_color="#000000" fill="#00AF80"/>
	</g>
</g><g>
	<g>
		<path d="M137.144,208.936L132,196.4l-0.424-1C117.352,158.626,110.47,119.42,111.32,80H112c4.418,0,8-3.582,8-8V40    c0-4.418-3.582-8-8-8V8c0-4.418-3.582-8-8-8H72c-4.418,0-8,3.582-8,8v24c-4.418,0-8,3.582-8,8v32c0,4.418,3.582,8,8,8h0.68    c0.841,39.411-6.046,78.605-20.272,115.368L44,196.4l-5.128,12.536C18.96,257.432,8,284.144,8,378.624V456    c0,13.255,10.745,24,24,24h112c13.255,0,24-10.745,24-24v-77.376C168,284.144,157.04,257.432,137.144,208.936z M146,288h-18.6    c0.801-5.303,0.801-10.697,0-16h15.2C143.864,277.072,145,282.4,146,288z M80,16h16v16H80V16z M79.944,71.072    C79.473,67.041,76.059,64.001,72,64V48h32v16c-4.059,0.001-7.473,3.041-7.944,7.072c-3.92,33.6,3.904,79.336,14.544,112.928H65.4    C76.04,150.4,83.864,104.648,79.944,71.072z M53.664,215.008l5.152-12.608l0.384-1.04c0.176-0.432,0.352-0.92,0.528-1.36h56.48    c0.176,0.44,0.352,0.928,0.528,1.36l0.416,1.048l5.152,12.6c6.192,15.08,11.408,27.816,15.664,40.992h-15.384    c-5.93-14.004-19.39-23.345-34.584-24c-15.194,0.655-28.654,9.996-34.584,24H38C42.256,242.824,47.472,230.088,53.664,215.008z     M112,280c0,17.648-10.768,32-24,32s-24-14.352-24-32s10.768-32,24-32S112,262.352,112,280z M33.408,272h15.2    c-0.801,5.303-0.801,10.697,0,16H48.6H30.008C31.024,282.4,32.144,277.072,33.408,272z M152,456c0,4.418-3.582,8-8,8H32    c-4.418,0-8-3.582-8-8v-16h128V456z M152,378.624V424H24v-45.376c-0.314-24.925,0.896-49.846,3.624-74.624h25.792    c5.93,14.004,19.39,23.345,34.584,24c15.194-0.655,28.654-9.996,34.584-24h25.792C151.104,328.778,152.314,353.699,152,378.624z" data-original="#000000" class="active-path" data-old_color="#000000" fill="#00AF80"/>
	</g>
</g><g>
	<g>
		<path d="M432,160h-7.504c0.734-34.847-1.697-69.689-7.264-104.096C421.127,55.297,424,51.942,424,48V16c0-4.418-3.582-8-8-8    c0-4.418-3.582-8-8-8h-32c-4.418,0-8,3.582-8,8c-4.418,0-8,3.582-8,8v32c0,3.942,2.873,7.297,6.768,7.904    c-5.567,34.407-7.998,69.249-7.264,104.096H352c-22.08,0.026-39.974,17.92-40,40v256c0,13.255,10.745,24,24,24h112    c13.255,0,24-10.745,24-24V200C471.974,177.92,454.08,160.026,432,160z M377.184,40.088C376.792,40.029,376.396,40,376,40V24    c4.418,0,8-3.582,8-8h16c0,4.418,3.582,8,8,8v16c-4.418,0-8,3.582-8,8c0,0.396,0.029,0.792,0.088,1.184    c4.121,26.111,6.888,52.419,8.288,78.816h-32.752c1.4-26.397,4.167-52.705,8.288-78.816    C384.566,44.814,381.554,40.742,377.184,40.088z M456,456c0,4.418-3.582,8-8,8H336c-4.418,0-8-3.582-8-8v-40h128V456z M456,400    H328V248h128V400z M456,232H328v-32c0-13.255,10.745-24,24-24h16c4.418,0.012,8.01-3.559,8.022-7.977    c0.001-0.208-0.007-0.415-0.022-0.623c-0.552-7.28-0.8-15.064-0.8-23.4h33.6c0,8.336-0.216,16.12-0.8,23.4    c-0.331,4.406,2.972,8.246,7.377,8.577c0.207,0.016,0.415,0.023,0.623,0.023h16c13.255,0,24,10.745,24,24V232z" data-original="#000000" class="active-path" data-old_color="#000000" fill="#00AF80"/>
	</g>
</g></g> </svg>
